<svg xmlns="http://www.w3.org/2000/svg" width="400" height="300" viewBox="0 0 400 300" fill="none">
  <path d="M200 50L240 130H160L200 50Z" fill="#00D5BE" opacity="0.2"/>
  <path d="M200 50L240 130H160L200 50Z" stroke="#00D5BE" stroke-width="4"/>
  <path d="M160 130L200 210L240 130" stroke="#00D5BE" stroke-width="4"/>
  <path d="M120 170L160 130" stroke="#00D5BE" stroke-width="4"/>
  <path d="M240 130L280 170" stroke="#00D5BE" stroke-width="4"/>
  <path d="M120 170L160 210" stroke="#00D5BE" stroke-width="4"/>
  <path d="M240 210L280 170" stroke="#00D5BE" stroke-width="4"/>
  <path d="M160 210L200 250L240 210" stroke="#00D5BE" stroke-width="4"/>
  <circle cx="200" cy="50" r="10" fill="#00D5BE"/>
  <circle cx="160" cy="130" r="10" fill="#00D5BE"/>
  <circle cx="240" cy="130" r="10" fill="#00D5BE"/>
  <circle cx="120" cy="170" r="10" fill="#00D5BE"/>
  <circle cx="280" cy="170" r="10" fill="#00D5BE"/>
  <circle cx="160" cy="210" r="10" fill="#00D5BE"/>
  <circle cx="240" cy="210" r="10" fill="#00D5BE"/>
  <circle cx="200" cy="210" r="10" fill="#00D5BE"/>
  <circle cx="200" cy="250" r="10" fill="#00D5BE"/>
  <path d="M200 20L200 40" stroke="#615FFF" stroke-width="4"/>
  <path d="M160 30L170 45" stroke="#615FFF" stroke-width="4"/>
  <path d="M240 30L230 45" stroke="#615FFF" stroke-width="4"/>
  <path d="M140 60L155 70" stroke="#615FFF" stroke-width="4"/>
  <path d="M260 60L245 70" stroke="#615FFF" stroke-width="4"/>
</svg>
