<svg xmlns="http://www.w3.org/2000/svg" width="400" height="300" viewBox="0 0 400 300" fill="none">
  <path d="M100 100C100 100 130 80 200 80C270 80 300 100 300 100V220C300 220 270 200 200 200C130 200 100 220 100 220V100Z" fill="#615FFF" opacity="0.1"/>
  <path d="M100 100C100 100 130 80 200 80C270 80 300 100 300 100V220C300 220 270 200 200 200C130 200 100 220 100 220V100Z" stroke="#615FFF" stroke-width="4"/>
  <circle cx="150" cy="120" r="15" fill="#00D5BE" opacity="0.2"/>
  <circle cx="150" cy="120" r="15" stroke="#00D5BE" stroke-width="3"/>
  <circle cx="250" cy="160" r="15" fill="#00D5BE" opacity="0.2"/>
  <circle cx="250" cy="160" r="15" stroke="#00D5BE" stroke-width="3"/>
  <path d="M150 120L250 160" stroke="#00D5BE" stroke-width="3" stroke-dasharray="5 5"/>
  <path d="M120 150C120 150 140 140 160 140C180 140 200 150 200 150" stroke="#FFB86A" stroke-width="3"/>
  <path d="M200 150C200 150 220 160 240 160C260 160 280 150 280 150" stroke="#FFB86A" stroke-width="3"/>
  <path d="M140 100L160 140" stroke="#615FFF" stroke-width="2"/>
  <path d="M240 120L260 160" stroke="#615FFF" stroke-width="2"/>
  <circle cx="140" cy="100" r="5" fill="#615FFF"/>
  <circle cx="240" cy="120" r="5" fill="#615FFF"/>
  <path d="M130 180C130 180 150 170 170 170C190 170 210 180 210 180" stroke="#615FFF" stroke-width="2"/>
  <path d="M210 180C210 180 230 170 250 170C270 170 290 180 290 180" stroke="#615FFF" stroke-width="2"/>
</svg>
